# xmcd CD database file
#
# Track frame offsets:
#	150
#	24072
#	34937
#	53097
#	74804
#	108227
#	126539
#
# Disc length: 1916 seconds
#
# Revision: 0
# Processed by: cddbd v1.5.1PL0 Copyright (c) Steve Scherf et al.
# Submitted via: CDex 1.51
#
DISCID=5f077a07
DTITLE=Daniel Salinas - Atlantis
DYEAR=1973
DGENRE=Jazz
TTITLE0=Like a Rainy Night
TTITLE1=No Broken Heart
TTITLE2=Baiao
TTITLE3=Straussmania
TTITLE4=Bridge over Troubled Waters
TTITLE5=A Song for a Helping Hand
TTITLE6=Atlantis
EXTD=YEAR: 1973
EXTT0=
EXTT1=
EXTT2=
EXTT3=
EXTT4=
EXTT5=
EXTT6=
PLAYORDER=
